<?xml version="1.0" encoding="UTF-8" standalone="no"?>
<!DOCTYPE svg PUBLIC "-//W3C//DTD SVG 1.1//EN"
 "http://www.w3.org/Graphics/SVG/1.1/DTD/svg11.dtd">
<!-- Generated by graphviz version 3.0.0 (20220226.1711)
 -->
<!-- Pages: 1 -->
<svg width="280pt" height="332pt"
 viewBox="0.00 0.00 280.00 332.00" xmlns="http://www.w3.org/2000/svg" xmlns:xlink="http://www.w3.org/1999/xlink">
<g id="graph0" class="graph" transform="scale(1 1) rotate(0) translate(4 328)">
<polygon fill="white" stroke="transparent" points="-4,4 -4,-328 276,-328 276,4 -4,4"/>
<!-- 0 -->
<g id="node1" class="node">
<title>0</title>
<polygon fill="#fef9f6" stroke="black" stroke-width="1.2" points="114.5,-324 60.5,-324 60.5,-288 114.5,-288 114.5,-324"/>
<text text-anchor="middle" x="87.5" y="-303.2" font-family="trebuchet" font-size="11.00">4</text>
</g>
<!-- 1 -->
<g id="node2" class="node">
<title>1</title>
<polygon fill="#fae5d5" stroke="black" stroke-width="1.2" points="87,-252 0,-252 0,-192 87,-192 87,-252"/>
<text text-anchor="middle" x="43.5" y="-243.2" font-family="trebuchet" font-size="11.00">Class 2:</text>
<text text-anchor="middle" x="43.5" y="-231.2" font-family="trebuchet" font-size="11.00">	P(0) = 0.1</text>
<text text-anchor="middle" x="43.5" y="-219.2" font-family="trebuchet" font-size="11.00">	P(1) = 0.4</text>
<text text-anchor="middle" x="43.5" y="-207.2" font-family="trebuchet" font-size="11.00">	P(2) = 0.5</text>
<text text-anchor="middle" x="43.5" y="-195.2" font-family="trebuchet" font-size="11.00">samples: 5848</text>
</g>
<!-- 0&#45;&gt;1 -->
<g id="edge1" class="edge">
<title>0&#45;&gt;1</title>
<path fill="none" stroke="black" stroke-width="0.6" d="M73.75,-287.77C73.75,-287.77 73.75,-262.08 73.75,-262.08"/>
<polygon fill="black" stroke="black" stroke-width="0.6" points="77.25,-262.08 73.75,-252.08 70.25,-262.08 77.25,-262.08"/>
<text text-anchor="middle" x="60.75" y="-277.33" font-family="Times,serif" font-size="7.00">≤ 0.4407</text>
</g>
<!-- 2 -->
<g id="node3" class="node">
<title>2</title>
<polygon fill="#dffbeb" stroke="black" stroke-width="1.2" points="159.5,-240 105.5,-240 105.5,-204 159.5,-204 159.5,-240"/>
<text text-anchor="middle" x="132.5" y="-219.2" font-family="trebuchet" font-size="11.00">5</text>
</g>
<!-- 0&#45;&gt;2 -->
<g id="edge2" class="edge">
<title>0&#45;&gt;2</title>
<path fill="none" stroke="black" stroke-width="0.6" d="M110,-287.77C110,-287.77 110,-250.19 110,-250.19"/>
<polygon fill="black" stroke="black" stroke-width="0.6" points="113.5,-250.19 110,-240.19 106.5,-250.19 113.5,-250.19"/>
<text text-anchor="middle" x="97" y="-271.38" font-family="Times,serif" font-size="7.00">&gt; 0.4407</text>
</g>
<!-- 3 -->
<g id="node4" class="node">
<title>3</title>
<polygon fill="#cbadf4" stroke="black" stroke-width="1.2" points="131,-156 44,-156 44,-96 131,-96 131,-156"/>
<text text-anchor="middle" x="87.5" y="-147.2" font-family="trebuchet" font-size="11.00">Class 1:</text>
<text text-anchor="middle" x="87.5" y="-135.2" font-family="trebuchet" font-size="11.00">	P(0) = 0.1</text>
<text text-anchor="middle" x="87.5" y="-123.2" font-family="trebuchet" font-size="11.00">	P(1) = 0.6</text>
<text text-anchor="middle" x="87.5" y="-111.2" font-family="trebuchet" font-size="11.00">	P(2) = 0.3</text>
<text text-anchor="middle" x="87.5" y="-99.2" font-family="trebuchet" font-size="11.00">samples: 964</text>
</g>
<!-- 2&#45;&gt;3 -->
<g id="edge3" class="edge">
<title>2&#45;&gt;3</title>
<path fill="none" stroke="black" stroke-width="0.6" d="M118.25,-203.94C118.25,-203.94 118.25,-166.05 118.25,-166.05"/>
<polygon fill="black" stroke="black" stroke-width="0.6" points="121.75,-166.05 118.25,-156.05 114.75,-166.05 121.75,-166.05"/>
<text text-anchor="middle" x="105.25" y="-187.4" font-family="Times,serif" font-size="7.00">≤ 0.2321</text>
</g>
<!-- 4 -->
<g id="node5" class="node">
<title>4</title>
<polygon fill="#d6fae5" stroke="black" stroke-width="1.2" points="203.5,-144 149.5,-144 149.5,-108 203.5,-108 203.5,-144"/>
<text text-anchor="middle" x="176.5" y="-123.2" font-family="trebuchet" font-size="11.00">5</text>
</g>
<!-- 2&#45;&gt;4 -->
<g id="edge4" class="edge">
<title>2&#45;&gt;4</title>
<path fill="none" stroke="black" stroke-width="0.6" d="M154.5,-203.94C154.5,-203.94 154.5,-154.3 154.5,-154.3"/>
<polygon fill="black" stroke="black" stroke-width="0.6" points="158,-154.3 154.5,-144.3 151,-154.3 158,-154.3"/>
<text text-anchor="middle" x="141.5" y="-181.52" font-family="Times,serif" font-size="7.00">&gt; 0.2321</text>
</g>
<!-- 5 -->
<g id="node6" class="node">
<title>5</title>
<polygon fill="#d1f9e2" stroke="black" stroke-width="1.2" points="167,-60 80,-60 80,0 167,0 167,-60"/>
<text text-anchor="middle" x="123.5" y="-51.2" font-family="trebuchet" font-size="11.00">Class 0:</text>
<text text-anchor="middle" x="123.5" y="-39.2" font-family="trebuchet" font-size="11.00">	P(0) = 0.5</text>
<text text-anchor="middle" x="123.5" y="-27.2" font-family="trebuchet" font-size="11.00">	P(1) = 0.2</text>
<text text-anchor="middle" x="123.5" y="-15.2" font-family="trebuchet" font-size="11.00">	P(2) = 0.3</text>
<text text-anchor="middle" x="123.5" y="-3.2" font-family="trebuchet" font-size="11.00">samples: 4362</text>
</g>
<!-- 4&#45;&gt;5 -->
<g id="edge5" class="edge">
<title>4&#45;&gt;5</title>
<path fill="none" stroke="black" stroke-width="0.6" d="M158.25,-107.94C158.25,-107.94 158.25,-70.05 158.25,-70.05"/>
<polygon fill="black" stroke="black" stroke-width="0.6" points="161.75,-70.05 158.25,-60.05 154.75,-70.05 161.75,-70.05"/>
<text text-anchor="middle" x="145.25" y="-91.4" font-family="Times,serif" font-size="7.00">≤ 0.8594</text>
</g>
<!-- 6 -->
<g id="node7" class="node">
<title>6</title>
<polygon fill="#f7d7c0" stroke="black" stroke-width="1.2" points="272,-60 185,-60 185,0 272,0 272,-60"/>
<text text-anchor="middle" x="228.5" y="-51.2" font-family="trebuchet" font-size="11.00">Class 2:</text>
<text text-anchor="middle" x="228.5" y="-39.2" font-family="trebuchet" font-size="11.00">	P(0) = 0.3</text>
<text text-anchor="middle" x="228.5" y="-27.2" font-family="trebuchet" font-size="11.00">	P(1) = 0.1</text>
<text text-anchor="middle" x="228.5" y="-15.2" font-family="trebuchet" font-size="11.00">	P(2) = 0.5</text>
<text text-anchor="middle" x="228.5" y="-3.2" font-family="trebuchet" font-size="11.00">samples: 1511</text>
</g>
<!-- 4&#45;&gt;6 -->
<g id="edge6" class="edge">
<title>4&#45;&gt;6</title>
<path fill="none" stroke="black" stroke-width="0.6" d="M194.25,-107.94C194.25,-107.94 194.25,-70.05 194.25,-70.05"/>
<polygon fill="black" stroke="black" stroke-width="0.6" points="197.75,-70.05 194.25,-60.05 190.75,-70.05 197.75,-70.05"/>
<text text-anchor="middle" x="181.25" y="-91.4" font-family="Times,serif" font-size="7.00">&gt; 0.8594</text>
</g>
</g>
</svg>
