<?xml version="1.0" encoding="UTF-8" standalone="no"?>
<!DOCTYPE svg PUBLIC "-//W3C//DTD SVG 1.1//EN"
 "http://www.w3.org/Graphics/SVG/1.1/DTD/svg11.dtd">
<!-- Generated by graphviz version 3.0.0 (20220226.1711)
 -->
<!-- Pages: 1 -->
<svg width="566pt" height="260pt"
 viewBox="0.00 0.00 566.00 260.00" xmlns="http://www.w3.org/2000/svg" xmlns:xlink="http://www.w3.org/1999/xlink">
<g id="graph0" class="graph" transform="scale(1 1) rotate(0) translate(4 256)">
<polygon fill="white" stroke="transparent" points="-4,4 -4,-256 562,-256 562,4 -4,4"/>
<!-- 0 -->
<g id="node1" class="node">
<title>0</title>
<polygon fill="#ffffff" stroke="black" stroke-width="1.2" points="306,-252 252,-252 252,-216 306,-216 306,-252"/>
<text text-anchor="middle" x="279" y="-231.2" font-family="trebuchet" font-size="11.00">3</text>
</g>
<!-- 1 -->
<g id="node2" class="node">
<title>1</title>
<polygon fill="#ffffff" stroke="black" stroke-width="1.2" points="234,-180 180,-180 180,-144 234,-144 234,-180"/>
<text text-anchor="middle" x="207" y="-159.2" font-family="trebuchet" font-size="11.00">1</text>
</g>
<!-- 0&#45;&gt;1 -->
<g id="edge1" class="edge">
<title>0&#45;&gt;1</title>
<path fill="none" stroke="black" stroke-width="0.6" d="M261,-215.97C261,-196.42 261,-168 261,-168 261,-168 244.32,-168 244.32,-168"/>
<polygon fill="black" stroke="black" stroke-width="0.6" points="244.32,-164.5 234.32,-168 244.32,-171.5 244.32,-164.5"/>
<text text-anchor="middle" x="252.5" y="-186.04" font-family="Times,serif" font-size="7.00">≤ &#45;0.1</text>
</g>
<!-- 56 -->
<g id="node9" class="node">
<title>56</title>
<polygon fill="#ffffff" stroke="black" stroke-width="1.2" points="378,-180 324,-180 324,-144 378,-144 378,-180"/>
<text text-anchor="middle" x="351" y="-159.2" font-family="trebuchet" font-size="11.00">1</text>
</g>
<!-- 0&#45;&gt;56 -->
<g id="edge8" class="edge">
<title>0&#45;&gt;56</title>
<path fill="none" stroke="black" stroke-width="0.6" d="M297,-215.91C297,-192.87 297,-156 297,-156 297,-156 313.68,-156 313.68,-156"/>
<polygon fill="black" stroke="black" stroke-width="0.6" points="313.68,-159.5 323.68,-156 313.68,-152.5 313.68,-159.5"/>
<text text-anchor="middle" x="288.5" y="-180.01" font-family="Times,serif" font-size="7.00">&gt; &#45;0.1</text>
</g>
<!-- 2 -->
<g id="node3" class="node">
<title>2</title>
<polygon fill="#ffffff" stroke="black" stroke-width="1.2" points="126,-108 72,-108 72,-72 126,-72 126,-108"/>
<text text-anchor="middle" x="99" y="-87.2" font-family="trebuchet" font-size="11.00">3</text>
</g>
<!-- 1&#45;&gt;2 -->
<g id="edge2" class="edge">
<title>1&#45;&gt;2</title>
<path fill="none" stroke="black" stroke-width="0.6" d="M179.75,-162C147.75,-162 99,-162 99,-162 99,-162 99,-118.17 99,-118.17"/>
<polygon fill="black" stroke="black" stroke-width="0.6" points="102.5,-118.17 99,-108.17 95.5,-118.17 102.5,-118.17"/>
<text text-anchor="middle" x="108.96" y="-164.4" font-family="Times,serif" font-size="7.00">≤ &#45;1.3</text>
</g>
<!-- 11 -->
<g id="node6" class="node">
<title>11</title>
<polygon fill="#ffffff" stroke="black" stroke-width="1.2" points="234,-108 180,-108 180,-72 234,-72 234,-108"/>
<text text-anchor="middle" x="207" y="-87.2" font-family="trebuchet" font-size="11.00">0</text>
</g>
<!-- 1&#45;&gt;11 -->
<g id="edge5" class="edge">
<title>1&#45;&gt;11</title>
<path fill="none" stroke="black" stroke-width="0.6" d="M207,-143.83C207,-143.83 207,-118.41 207,-118.41"/>
<polygon fill="black" stroke="black" stroke-width="0.6" points="210.5,-118.41 207,-108.41 203.5,-118.41 210.5,-118.41"/>
<text text-anchor="middle" x="198.5" y="-133.52" font-family="Times,serif" font-size="7.00">&gt; &#45;1.3</text>
</g>
<!-- 3 -->
<g id="node4" class="node">
<title>3</title>
<polygon fill="#ffffff" stroke="black" stroke-width="1.2" points="54,-36 0,-36 0,0 54,0 54,-36"/>
<text text-anchor="middle" x="27" y="-15.2" font-family="trebuchet" font-size="11.00">4</text>
</g>
<!-- 2&#45;&gt;3 -->
<g id="edge3" class="edge">
<title>2&#45;&gt;3</title>
<path fill="none" stroke="black" stroke-width="0.6" d="M71.78,-90C51.39,-90 27,-90 27,-90 27,-90 27,-46.17 27,-46.17"/>
<polygon fill="black" stroke="black" stroke-width="0.6" points="30.5,-46.17 27,-36.17 23.5,-46.17 30.5,-46.17"/>
<text text-anchor="middle" x="18.97" y="-92.4" font-family="Times,serif" font-size="7.00">≤ &#45;1.1</text>
</g>
<!-- 6 -->
<g id="node5" class="node">
<title>6</title>
<polygon fill="#ffffff" stroke="black" stroke-width="1.2" points="126,-36 72,-36 72,0 126,0 126,-36"/>
<text text-anchor="middle" x="99" y="-15.2" font-family="trebuchet" font-size="11.00">4</text>
</g>
<!-- 2&#45;&gt;6 -->
<g id="edge4" class="edge">
<title>2&#45;&gt;6</title>
<path fill="none" stroke="black" stroke-width="0.6" d="M99,-71.83C99,-71.83 99,-46.41 99,-46.41"/>
<polygon fill="black" stroke="black" stroke-width="0.6" points="102.5,-46.41 99,-36.41 95.5,-46.41 102.5,-46.41"/>
<text text-anchor="middle" x="90.5" y="-61.52" font-family="Times,serif" font-size="7.00">&gt; &#45;1.1</text>
</g>
<!-- 12 -->
<g id="node7" class="node">
<title>12</title>
<polygon fill="#ffffff" stroke="black" stroke-width="1.2" points="198,-36 144,-36 144,0 198,0 198,-36"/>
<text text-anchor="middle" x="171" y="-15.2" font-family="trebuchet" font-size="11.00">4</text>
</g>
<!-- 11&#45;&gt;12 -->
<g id="edge6" class="edge">
<title>11&#45;&gt;12</title>
<path fill="none" stroke="black" stroke-width="0.6" d="M189,-71.83C189,-71.83 189,-46.41 189,-46.41"/>
<polygon fill="black" stroke="black" stroke-width="0.6" points="192.5,-46.41 189,-36.41 185.5,-46.41 192.5,-46.41"/>
<text text-anchor="middle" x="180.5" y="-61.52" font-family="Times,serif" font-size="7.00">≤ &#45;0.8</text>
</g>
<!-- 25 -->
<g id="node8" class="node">
<title>25</title>
<polygon fill="#ffffff" stroke="black" stroke-width="1.2" points="270,-36 216,-36 216,0 270,0 270,-36"/>
<text text-anchor="middle" x="243" y="-15.2" font-family="trebuchet" font-size="11.00">1</text>
</g>
<!-- 11&#45;&gt;25 -->
<g id="edge7" class="edge">
<title>11&#45;&gt;25</title>
<path fill="none" stroke="black" stroke-width="0.6" d="M225,-71.83C225,-71.83 225,-46.41 225,-46.41"/>
<polygon fill="black" stroke="black" stroke-width="0.6" points="228.5,-46.41 225,-36.41 221.5,-46.41 228.5,-46.41"/>
<text text-anchor="middle" x="216.5" y="-61.52" font-family="Times,serif" font-size="7.00">&gt; &#45;0.8</text>
</g>
<!-- 57 -->
<g id="node10" class="node">
<title>57</title>
<polygon fill="#ffffff" stroke="black" stroke-width="1.2" points="378,-108 324,-108 324,-72 378,-72 378,-108"/>
<text text-anchor="middle" x="351" y="-87.2" font-family="trebuchet" font-size="11.00">3</text>
</g>
<!-- 56&#45;&gt;57 -->
<g id="edge9" class="edge">
<title>56&#45;&gt;57</title>
<path fill="none" stroke="black" stroke-width="0.6" d="M351,-143.83C351,-143.83 351,-118.41 351,-118.41"/>
<polygon fill="black" stroke="black" stroke-width="0.6" points="354.5,-118.41 351,-108.41 347.5,-118.41 354.5,-118.41"/>
<text text-anchor="middle" x="342.5" y="-133.52" font-family="Times,serif" font-size="7.00">≤ &#45;0.8</text>
</g>
<!-- 76 -->
<g id="node13" class="node">
<title>76</title>
<polygon fill="#ffffff" stroke="black" stroke-width="1.2" points="486,-108 432,-108 432,-72 486,-72 486,-108"/>
<text text-anchor="middle" x="459" y="-87.2" font-family="trebuchet" font-size="11.00">0</text>
</g>
<!-- 56&#45;&gt;76 -->
<g id="edge12" class="edge">
<title>56&#45;&gt;76</title>
<path fill="none" stroke="black" stroke-width="0.6" d="M378.25,-162C410.25,-162 459,-162 459,-162 459,-162 459,-118.17 459,-118.17"/>
<polygon fill="black" stroke="black" stroke-width="0.6" points="462.5,-118.17 459,-108.17 455.5,-118.17 462.5,-118.17"/>
<text text-anchor="middle" x="432.04" y="-164.4" font-family="Times,serif" font-size="7.00">&gt; &#45;0.8</text>
</g>
<!-- 58 -->
<g id="node11" class="node">
<title>58</title>
<polygon fill="#ffffff" stroke="black" stroke-width="1.2" points="342,-36 288,-36 288,0 342,0 342,-36"/>
<text text-anchor="middle" x="315" y="-15.2" font-family="trebuchet" font-size="11.00">4</text>
</g>
<!-- 57&#45;&gt;58 -->
<g id="edge10" class="edge">
<title>57&#45;&gt;58</title>
<path fill="none" stroke="black" stroke-width="0.6" d="M333,-71.83C333,-71.83 333,-46.41 333,-46.41"/>
<polygon fill="black" stroke="black" stroke-width="0.6" points="336.5,-46.41 333,-36.41 329.5,-46.41 336.5,-46.41"/>
<text text-anchor="middle" x="325.5" y="-61.52" font-family="Times,serif" font-size="7.00">≤ 0.6</text>
</g>
<!-- 65 -->
<g id="node12" class="node">
<title>65</title>
<polygon fill="#ffffff" stroke="black" stroke-width="1.2" points="414,-36 360,-36 360,0 414,0 414,-36"/>
<text text-anchor="middle" x="387" y="-15.2" font-family="trebuchet" font-size="11.00">0</text>
</g>
<!-- 57&#45;&gt;65 -->
<g id="edge11" class="edge">
<title>57&#45;&gt;65</title>
<path fill="none" stroke="black" stroke-width="0.6" d="M369,-71.83C369,-71.83 369,-46.41 369,-46.41"/>
<polygon fill="black" stroke="black" stroke-width="0.6" points="372.5,-46.41 369,-36.41 365.5,-46.41 372.5,-46.41"/>
<text text-anchor="middle" x="361.5" y="-61.52" font-family="Times,serif" font-size="7.00">&gt; 0.6</text>
</g>
<!-- 77 -->
<g id="node14" class="node">
<title>77</title>
<polygon fill="#ffffff" stroke="black" stroke-width="1.2" points="486,-36 432,-36 432,0 486,0 486,-36"/>
<text text-anchor="middle" x="459" y="-15.2" font-family="trebuchet" font-size="11.00">0</text>
</g>
<!-- 76&#45;&gt;77 -->
<g id="edge13" class="edge">
<title>76&#45;&gt;77</title>
<path fill="none" stroke="black" stroke-width="0.6" d="M459,-71.83C459,-71.83 459,-46.41 459,-46.41"/>
<polygon fill="black" stroke="black" stroke-width="0.6" points="462.5,-46.41 459,-36.41 455.5,-46.41 462.5,-46.41"/>
<text text-anchor="middle" x="450.5" y="-61.52" font-family="Times,serif" font-size="7.00">≤ &#45;0.8</text>
</g>
<!-- 88 -->
<g id="node15" class="node">
<title>88</title>
<polygon fill="#ffffff" stroke="black" stroke-width="1.2" points="558,-36 504,-36 504,0 558,0 558,-36"/>
<text text-anchor="middle" x="531" y="-15.2" font-family="trebuchet" font-size="11.00">3</text>
</g>
<!-- 76&#45;&gt;88 -->
<g id="edge14" class="edge">
<title>76&#45;&gt;88</title>
<path fill="none" stroke="black" stroke-width="0.6" d="M486.22,-90C506.61,-90 531,-90 531,-90 531,-90 531,-46.17 531,-46.17"/>
<polygon fill="black" stroke="black" stroke-width="0.6" points="534.5,-46.17 531,-36.17 527.5,-46.17 534.5,-46.17"/>
<text text-anchor="middle" x="522.03" y="-92.4" font-family="Times,serif" font-size="7.00">&gt; &#45;0.8</text>
</g>
</g>
</svg>
