<?xml version="1.0" encoding="UTF-8" standalone="no"?>
<!DOCTYPE svg PUBLIC "-//W3C//DTD SVG 1.1//EN"
 "http://www.w3.org/Graphics/SVG/1.1/DTD/svg11.dtd">
<!-- Generated by graphviz version 3.0.0 (20220226.1711)
 -->
<!-- Pages: 1 -->
<svg width="1027pt" height="692pt"
 viewBox="0.00 0.00 1027.00 692.00" xmlns="http://www.w3.org/2000/svg" xmlns:xlink="http://www.w3.org/1999/xlink">
<g id="graph0" class="graph" transform="scale(1 1) rotate(0) translate(4 688)">
<polygon fill="white" stroke="transparent" points="-4,4 -4,-688 1023,-688 1023,4 -4,4"/>
<!-- 0 -->
<g id="node1" class="node">
<title>0</title>
<polygon fill="#fdf7f3" stroke="black" stroke-width="1.2" points="465.5,-684 411.5,-684 411.5,-648 465.5,-648 465.5,-684"/>
<text text-anchor="middle" x="438.5" y="-663.2" font-family="trebuchet" font-size="11.00">7</text>
</g>
<!-- 1 -->
<g id="node2" class="node">
<title>1</title>
<polygon fill="#f4cbad" stroke="black" stroke-width="1.2" points="376.5,-612 322.5,-612 322.5,-576 376.5,-576 376.5,-612"/>
<text text-anchor="middle" x="349.5" y="-591.2" font-family="trebuchet" font-size="11.00">1</text>
</g>
<!-- 0&#45;&gt;1 -->
<g id="edge1" class="edge">
<title>0&#45;&gt;1</title>
<path fill="none" stroke="black" stroke-width="0.6" d="M416.5,-647.91C416.5,-624.87 416.5,-588 416.5,-588 416.5,-588 386.75,-588 386.75,-588"/>
<polygon fill="black" stroke="black" stroke-width="0.6" points="386.75,-584.5 376.75,-588 386.75,-591.5 386.75,-584.5"/>
<text text-anchor="middle" x="403.5" y="-605.48" font-family="Times,serif" font-size="7.00">≤ 0.2283</text>
</g>
<!-- 12 -->
<g id="node13" class="node">
<title>12</title>
<polygon fill="#fbfdfe" stroke="black" stroke-width="1.2" points="554.5,-612 500.5,-612 500.5,-576 554.5,-576 554.5,-612"/>
<text text-anchor="middle" x="527.5" y="-591.2" font-family="trebuchet" font-size="11.00">4</text>
</g>
<!-- 0&#45;&gt;12 -->
<g id="edge12" class="edge">
<title>0&#45;&gt;12</title>
<path fill="none" stroke="black" stroke-width="0.6" d="M452.75,-647.97C452.75,-628.42 452.75,-600 452.75,-600 452.75,-600 490.09,-600 490.09,-600"/>
<polygon fill="black" stroke="black" stroke-width="0.6" points="490.09,-603.5 500.09,-600 490.09,-596.5 490.09,-603.5"/>
<text text-anchor="middle" x="439.75" y="-607.71" font-family="Times,serif" font-size="7.00">&gt; 0.2283</text>
</g>
<!-- 2 -->
<g id="node3" class="node">
<title>2</title>
<polygon fill="#dfeffb" stroke="black" stroke-width="1.2" points="227.5,-540 173.5,-540 173.5,-504 227.5,-504 227.5,-540"/>
<text text-anchor="middle" x="200.5" y="-519.2" font-family="trebuchet" font-size="11.00">0</text>
</g>
<!-- 1&#45;&gt;2 -->
<g id="edge2" class="edge">
<title>1&#45;&gt;2</title>
<path fill="none" stroke="black" stroke-width="0.6" d="M322.17,-594C279.16,-594 200.5,-594 200.5,-594 200.5,-594 200.5,-550.17 200.5,-550.17"/>
<polygon fill="black" stroke="black" stroke-width="0.6" points="204,-550.17 200.5,-540.17 197,-550.17 204,-550.17"/>
<text text-anchor="middle" x="226.42" y="-596.4" font-family="Times,serif" font-size="7.00">≤ 0.5631</text>
</g>
<!-- 7 -->
<g id="node8" class="node">
<title>7</title>
<polygon fill="#eb9e66" stroke="black" stroke-width="1.2" points="376.5,-540 322.5,-540 322.5,-504 376.5,-504 376.5,-540"/>
<text text-anchor="middle" x="349.5" y="-519.2" font-family="trebuchet" font-size="11.00">4</text>
</g>
<!-- 1&#45;&gt;7 -->
<g id="edge7" class="edge">
<title>1&#45;&gt;7</title>
<path fill="none" stroke="black" stroke-width="0.6" d="M349.5,-575.83C349.5,-575.83 349.5,-550.41 349.5,-550.41"/>
<polygon fill="black" stroke="black" stroke-width="0.6" points="353,-550.41 349.5,-540.41 346,-550.41 353,-550.41"/>
<text text-anchor="middle" x="336.5" y="-565.52" font-family="Times,serif" font-size="7.00">&gt; 0.5631</text>
</g>
<!-- 3 -->
<g id="node4" class="node">
<title>3</title>
<polygon fill="#fffefe" stroke="black" stroke-width="1.2" points="138.5,-462 84.5,-462 84.5,-426 138.5,-426 138.5,-462"/>
<text text-anchor="middle" x="111.5" y="-441.2" font-family="trebuchet" font-size="11.00">6</text>
</g>
<!-- 2&#45;&gt;3 -->
<g id="edge3" class="edge">
<title>2&#45;&gt;3</title>
<path fill="none" stroke="black" stroke-width="0.6" d="M173.31,-522C147.14,-522 111.5,-522 111.5,-522 111.5,-522 111.5,-472.09 111.5,-472.09"/>
<polygon fill="black" stroke="black" stroke-width="0.6" points="115,-472.09 111.5,-462.09 108,-472.09 115,-472.09"/>
<text text-anchor="middle" x="104.45" y="-524.4" font-family="Times,serif" font-size="7.00">≤ 0.8408</text>
</g>
<!-- 6 -->
<g id="node7" class="node">
<title>6</title>
<polygon fill="#66b3eb" stroke="black" stroke-width="1.2" points="244,-468 157,-468 157,-420 244,-420 244,-468"/>
<text text-anchor="middle" x="200.5" y="-459.2" font-family="trebuchet" font-size="11.00">Class 0:</text>
<text text-anchor="middle" x="200.5" y="-447.2" font-family="trebuchet" font-size="11.00">	P(0) = 0.9</text>
<text text-anchor="middle" x="200.5" y="-435.2" font-family="trebuchet" font-size="11.00">	P(1) = 0.1</text>
<text text-anchor="middle" x="200.5" y="-423.2" font-family="trebuchet" font-size="11.00">samples: 1171</text>
</g>
<!-- 2&#45;&gt;6 -->
<g id="edge6" class="edge">
<title>2&#45;&gt;6</title>
<path fill="none" stroke="black" stroke-width="0.6" d="M200.5,-503.91C200.5,-503.91 200.5,-478.2 200.5,-478.2"/>
<polygon fill="black" stroke="black" stroke-width="0.6" points="204,-478.2 200.5,-468.2 197,-478.2 204,-478.2"/>
<text text-anchor="middle" x="187.5" y="-493.45" font-family="Times,serif" font-size="7.00">&gt; 0.8408</text>
</g>
<!-- 4 -->
<g id="node5" class="node">
<title>4</title>
<polygon fill="#eb9f69" stroke="black" stroke-width="1.2" points="87,-384 0,-384 0,-336 87,-336 87,-384"/>
<text text-anchor="middle" x="43.5" y="-375.2" font-family="trebuchet" font-size="11.00">Class 1:</text>
<text text-anchor="middle" x="43.5" y="-363.2" font-family="trebuchet" font-size="11.00">	P(0) = 0.1</text>
<text text-anchor="middle" x="43.5" y="-351.2" font-family="trebuchet" font-size="11.00">	P(1) = 0.9</text>
<text text-anchor="middle" x="43.5" y="-339.2" font-family="trebuchet" font-size="11.00">samples: 411</text>
</g>
<!-- 3&#45;&gt;4 -->
<g id="edge4" class="edge">
<title>3&#45;&gt;4</title>
<path fill="none" stroke="black" stroke-width="0.6" d="M96,-425.77C96,-401.07 96,-360 96,-360 96,-360 95.13,-360 95.13,-360"/>
<polygon fill="black" stroke="black" stroke-width="0.6" points="97.33,-356.5 87.33,-360 97.33,-363.5 97.33,-356.5"/>
<text text-anchor="middle" x="83" y="-394.85" font-family="Times,serif" font-size="7.00">≤ 0.1779</text>
</g>
<!-- 5 -->
<g id="node6" class="node">
<title>5</title>
<polygon fill="#c7e3f8" stroke="black" stroke-width="1.2" points="192,-384 105,-384 105,-336 192,-336 192,-384"/>
<text text-anchor="middle" x="148.5" y="-375.2" font-family="trebuchet" font-size="11.00">Class 0:</text>
<text text-anchor="middle" x="148.5" y="-363.2" font-family="trebuchet" font-size="11.00">	P(0) = 0.6</text>
<text text-anchor="middle" x="148.5" y="-351.2" font-family="trebuchet" font-size="11.00">	P(1) = 0.4</text>
<text text-anchor="middle" x="148.5" y="-339.2" font-family="trebuchet" font-size="11.00">samples: 930</text>
</g>
<!-- 3&#45;&gt;5 -->
<g id="edge5" class="edge">
<title>3&#45;&gt;5</title>
<path fill="none" stroke="black" stroke-width="0.6" d="M121.75,-425.77C121.75,-425.77 121.75,-394.25 121.75,-394.25"/>
<polygon fill="black" stroke="black" stroke-width="0.6" points="125.25,-394.25 121.75,-384.25 118.25,-394.25 125.25,-394.25"/>
<text text-anchor="middle" x="108.75" y="-412.41" font-family="Times,serif" font-size="7.00">&gt; 0.1779</text>
</g>
<!-- 8 -->
<g id="node9" class="node">
<title>8</title>
<polygon fill="#f9e0cf" stroke="black" stroke-width="1.2" points="349,-468 262,-468 262,-420 349,-420 349,-468"/>
<text text-anchor="middle" x="305.5" y="-459.2" font-family="trebuchet" font-size="11.00">Class 1:</text>
<text text-anchor="middle" x="305.5" y="-447.2" font-family="trebuchet" font-size="11.00">	P(0) = 0.4</text>
<text text-anchor="middle" x="305.5" y="-435.2" font-family="trebuchet" font-size="11.00">	P(1) = 0.6</text>
<text text-anchor="middle" x="305.5" y="-423.2" font-family="trebuchet" font-size="11.00">samples: 872</text>
</g>
<!-- 7&#45;&gt;8 -->
<g id="edge8" class="edge">
<title>7&#45;&gt;8</title>
<path fill="none" stroke="black" stroke-width="0.6" d="M335.75,-503.91C335.75,-503.91 335.75,-478.2 335.75,-478.2"/>
<polygon fill="black" stroke="black" stroke-width="0.6" points="339.25,-478.2 335.75,-468.2 332.25,-478.2 339.25,-478.2"/>
<text text-anchor="middle" x="322.75" y="-493.45" font-family="Times,serif" font-size="7.00">≤ 0.1926</text>
</g>
<!-- 9 -->
<g id="node10" class="node">
<title>9</title>
<polygon fill="#e99355" stroke="black" stroke-width="1.2" points="421.5,-462 367.5,-462 367.5,-426 421.5,-426 421.5,-462"/>
<text text-anchor="middle" x="394.5" y="-441.2" font-family="trebuchet" font-size="11.00">7</text>
</g>
<!-- 7&#45;&gt;9 -->
<g id="edge9" class="edge">
<title>7&#45;&gt;9</title>
<path fill="none" stroke="black" stroke-width="0.6" d="M372,-503.91C372,-503.91 372,-472.26 372,-472.26"/>
<polygon fill="black" stroke="black" stroke-width="0.6" points="375.5,-472.26 372,-462.26 368.5,-472.26 375.5,-472.26"/>
<text text-anchor="middle" x="359" y="-490.49" font-family="Times,serif" font-size="7.00">&gt; 0.1926</text>
</g>
<!-- 10 -->
<g id="node11" class="node">
<title>10</title>
<polygon fill="#f7dac5" stroke="black" stroke-width="1.2" points="333,-384 246,-384 246,-336 333,-336 333,-384"/>
<text text-anchor="middle" x="289.5" y="-375.2" font-family="trebuchet" font-size="11.00">Class 1:</text>
<text text-anchor="middle" x="289.5" y="-363.2" font-family="trebuchet" font-size="11.00">	P(0) = 0.4</text>
<text text-anchor="middle" x="289.5" y="-351.2" font-family="trebuchet" font-size="11.00">	P(1) = 0.6</text>
<text text-anchor="middle" x="289.5" y="-339.2" font-family="trebuchet" font-size="11.00">samples: 68</text>
</g>
<!-- 9&#45;&gt;10 -->
<g id="edge10" class="edge">
<title>9&#45;&gt;10</title>
<path fill="none" stroke="black" stroke-width="0.6" d="M385.5,-425.94C385.5,-414.56 385.5,-402 385.5,-402 385.5,-402 297.5,-402 297.5,-402 297.5,-402 297.5,-394.43 297.5,-394.43"/>
<polygon fill="black" stroke="black" stroke-width="0.6" points="301,-394.43 297.5,-384.43 294,-394.43 301,-394.43"/>
<text text-anchor="middle" x="335.69" y="-404.4" font-family="Times,serif" font-size="7.00">≤ &#45;0.1839</text>
</g>
<!-- 11 -->
<g id="node12" class="node">
<title>11</title>
<polygon fill="#e88f4f" stroke="black" stroke-width="1.2" points="438,-384 351,-384 351,-336 438,-336 438,-384"/>
<text text-anchor="middle" x="394.5" y="-375.2" font-family="trebuchet" font-size="11.00">Class 1:</text>
<text text-anchor="middle" x="394.5" y="-363.2" font-family="trebuchet" font-size="11.00">	P(0) = 0.1</text>
<text text-anchor="middle" x="394.5" y="-351.2" font-family="trebuchet" font-size="11.00">	P(1) = 0.9</text>
<text text-anchor="middle" x="394.5" y="-339.2" font-family="trebuchet" font-size="11.00">samples: 2790</text>
</g>
<!-- 9&#45;&gt;11 -->
<g id="edge11" class="edge">
<title>9&#45;&gt;11</title>
<path fill="none" stroke="black" stroke-width="0.6" d="M403.5,-425.77C403.5,-425.77 403.5,-394.25 403.5,-394.25"/>
<polygon fill="black" stroke="black" stroke-width="0.6" points="407,-394.25 403.5,-384.25 400,-394.25 407,-394.25"/>
<text text-anchor="middle" x="389.5" y="-412.41" font-family="Times,serif" font-size="7.00">&gt; &#45;0.1839</text>
</g>
<!-- 13 -->
<g id="node14" class="node">
<title>13</title>
<polygon fill="#f9e2d1" stroke="black" stroke-width="1.2" points="554.5,-540 500.5,-540 500.5,-504 554.5,-504 554.5,-540"/>
<text text-anchor="middle" x="527.5" y="-519.2" font-family="trebuchet" font-size="11.00">6</text>
</g>
<!-- 12&#45;&gt;13 -->
<g id="edge13" class="edge">
<title>12&#45;&gt;13</title>
<path fill="none" stroke="black" stroke-width="0.6" d="M527.5,-575.83C527.5,-575.83 527.5,-550.41 527.5,-550.41"/>
<polygon fill="black" stroke="black" stroke-width="0.6" points="531,-550.41 527.5,-540.41 524,-550.41 531,-550.41"/>
<text text-anchor="middle" x="514.5" y="-565.52" font-family="Times,serif" font-size="7.00">≤ 0.4544</text>
</g>
<!-- 34 -->
<g id="node35" class="node">
<title>34</title>
<polygon fill="#b2d9f5" stroke="black" stroke-width="1.2" points="740.5,-540 686.5,-540 686.5,-504 740.5,-504 740.5,-540"/>
<text text-anchor="middle" x="713.5" y="-519.2" font-family="trebuchet" font-size="11.00">7</text>
</g>
<!-- 12&#45;&gt;34 -->
<g id="edge34" class="edge">
<title>12&#45;&gt;34</title>
<path fill="none" stroke="black" stroke-width="0.6" d="M554.55,-594C606.13,-594 713.5,-594 713.5,-594 713.5,-594 713.5,-550.17 713.5,-550.17"/>
<polygon fill="black" stroke="black" stroke-width="0.6" points="717,-550.17 713.5,-540.17 710,-550.17 717,-550.17"/>
<text text-anchor="middle" x="642.94" y="-596.4" font-family="Times,serif" font-size="7.00">&gt; 0.4544</text>
</g>
<!-- 14 -->
<g id="node15" class="node">
<title>14</title>
<polygon fill="#89c5f0" stroke="black" stroke-width="1.2" points="527,-468 440,-468 440,-420 527,-420 527,-468"/>
<text text-anchor="middle" x="483.5" y="-459.2" font-family="trebuchet" font-size="11.00">Class 0:</text>
<text text-anchor="middle" x="483.5" y="-447.2" font-family="trebuchet" font-size="11.00">	P(0) = 0.8</text>
<text text-anchor="middle" x="483.5" y="-435.2" font-family="trebuchet" font-size="11.00">	P(1) = 0.2</text>
<text text-anchor="middle" x="483.5" y="-423.2" font-family="trebuchet" font-size="11.00">samples: 2039</text>
</g>
<!-- 13&#45;&gt;14 -->
<g id="edge14" class="edge">
<title>13&#45;&gt;14</title>
<path fill="none" stroke="black" stroke-width="0.6" d="M513.75,-503.91C513.75,-503.91 513.75,-478.2 513.75,-478.2"/>
<polygon fill="black" stroke="black" stroke-width="0.6" points="517.25,-478.2 513.75,-468.2 510.25,-478.2 517.25,-478.2"/>
<text text-anchor="middle" x="500.75" y="-493.45" font-family="Times,serif" font-size="7.00">≤ 0.0588</text>
</g>
<!-- 15 -->
<g id="node16" class="node">
<title>15</title>
<polygon fill="#f6d4bc" stroke="black" stroke-width="1.2" points="599.5,-462 545.5,-462 545.5,-426 599.5,-426 599.5,-462"/>
<text text-anchor="middle" x="572.5" y="-441.2" font-family="trebuchet" font-size="11.00">2</text>
</g>
<!-- 13&#45;&gt;15 -->
<g id="edge15" class="edge">
<title>13&#45;&gt;15</title>
<path fill="none" stroke="black" stroke-width="0.6" d="M550,-503.91C550,-503.91 550,-472.26 550,-472.26"/>
<polygon fill="black" stroke="black" stroke-width="0.6" points="553.5,-472.26 550,-462.26 546.5,-472.26 553.5,-472.26"/>
<text text-anchor="middle" x="537" y="-490.49" font-family="Times,serif" font-size="7.00">&gt; 0.0588</text>
</g>
<!-- 16 -->
<g id="node17" class="node">
<title>16</title>
<polygon fill="#f4c9aa" stroke="black" stroke-width="1.2" points="510.5,-378 456.5,-378 456.5,-342 510.5,-342 510.5,-378"/>
<text text-anchor="middle" x="483.5" y="-357.2" font-family="trebuchet" font-size="11.00">1</text>
</g>
<!-- 15&#45;&gt;16 -->
<g id="edge16" class="edge">
<title>15&#45;&gt;16</title>
<path fill="none" stroke="black" stroke-width="0.6" d="M545.43,-444C540.69,-444 537.25,-444 537.25,-444 537.25,-444 537.25,-360 537.25,-360 537.25,-360 520.69,-360 520.69,-360"/>
<polygon fill="black" stroke="black" stroke-width="0.6" points="520.69,-356.5 510.69,-360 520.69,-363.5 520.69,-356.5"/>
<text text-anchor="middle" x="526.25" y="-400.21" font-family="Times,serif" font-size="7.00">≤ 0.894</text>
</g>
<!-- 31 -->
<g id="node32" class="node">
<title>31</title>
<polygon fill="#9ccef2" stroke="black" stroke-width="1.2" points="599.5,-378 545.5,-378 545.5,-342 599.5,-342 599.5,-378"/>
<text text-anchor="middle" x="572.5" y="-357.2" font-family="trebuchet" font-size="11.00">8</text>
</g>
<!-- 15&#45;&gt;31 -->
<g id="edge31" class="edge">
<title>15&#45;&gt;31</title>
<path fill="none" stroke="black" stroke-width="0.6" d="M572.5,-425.77C572.5,-425.77 572.5,-388.19 572.5,-388.19"/>
<polygon fill="black" stroke="black" stroke-width="0.6" points="576,-388.19 572.5,-378.19 569,-388.19 576,-388.19"/>
<text text-anchor="middle" x="561.5" y="-409.38" font-family="Times,serif" font-size="7.00">&gt; 0.894</text>
</g>
<!-- 17 -->
<g id="node18" class="node">
<title>17</title>
<polygon fill="#fdf5f0" stroke="black" stroke-width="1.2" points="375.5,-294 321.5,-294 321.5,-258 375.5,-258 375.5,-294"/>
<text text-anchor="middle" x="348.5" y="-273.2" font-family="trebuchet" font-size="11.00">6</text>
</g>
<!-- 16&#45;&gt;17 -->
<g id="edge17" class="edge">
<title>16&#45;&gt;17</title>
<path fill="none" stroke="black" stroke-width="0.6" d="M456.43,-360C451.69,-360 448.25,-360 448.25,-360 448.25,-360 448.25,-276 448.25,-276 448.25,-276 385.76,-276 385.76,-276"/>
<polygon fill="black" stroke="black" stroke-width="0.6" points="385.76,-272.5 375.76,-276 385.76,-279.5 385.76,-272.5"/>
<text text-anchor="middle" x="437.25" y="-293.24" font-family="Times,serif" font-size="7.00">≤ 0.368</text>
</g>
<!-- 22 -->
<g id="node23" class="node">
<title>22</title>
<polygon fill="#f1bc95" stroke="black" stroke-width="1.2" points="510.5,-294 456.5,-294 456.5,-258 510.5,-258 510.5,-294"/>
<text text-anchor="middle" x="483.5" y="-273.2" font-family="trebuchet" font-size="11.00">6</text>
</g>
<!-- 16&#45;&gt;22 -->
<g id="edge22" class="edge">
<title>16&#45;&gt;22</title>
<path fill="none" stroke="black" stroke-width="0.6" d="M483.5,-341.77C483.5,-341.77 483.5,-304.19 483.5,-304.19"/>
<polygon fill="black" stroke="black" stroke-width="0.6" points="487,-304.19 483.5,-294.19 480,-304.19 487,-304.19"/>
<text text-anchor="middle" x="472.5" y="-325.38" font-family="Times,serif" font-size="7.00">&gt; 0.368</text>
</g>
<!-- 18 -->
<g id="node19" class="node">
<title>18</title>
<polygon fill="#eeae80" stroke="black" stroke-width="1.2" points="303,-216 216,-216 216,-168 303,-168 303,-216"/>
<text text-anchor="middle" x="259.5" y="-207.2" font-family="trebuchet" font-size="11.00">Class 1:</text>
<text text-anchor="middle" x="259.5" y="-195.2" font-family="trebuchet" font-size="11.00">	P(0) = 0.2</text>
<text text-anchor="middle" x="259.5" y="-183.2" font-family="trebuchet" font-size="11.00">	P(1) = 0.8</text>
<text text-anchor="middle" x="259.5" y="-171.2" font-family="trebuchet" font-size="11.00">samples: 1561</text>
</g>
<!-- 17&#45;&gt;18 -->
<g id="edge18" class="edge">
<title>17&#45;&gt;18</title>
<path fill="none" stroke="black" stroke-width="0.6" d="M321.37,-276C300.25,-276 274.5,-276 274.5,-276 274.5,-276 274.5,-226.3 274.5,-226.3"/>
<polygon fill="black" stroke="black" stroke-width="0.6" points="278,-226.3 274.5,-216.3 271,-226.3 278,-226.3"/>
<text text-anchor="middle" x="261.5" y="-276.98" font-family="Times,serif" font-size="7.00">≤ 0.6508</text>
</g>
<!-- 19 -->
<g id="node20" class="node">
<title>19</title>
<polygon fill="#8fc7f0" stroke="black" stroke-width="1.2" points="375.5,-210 321.5,-210 321.5,-174 375.5,-174 375.5,-210"/>
<text text-anchor="middle" x="348.5" y="-189.2" font-family="trebuchet" font-size="11.00">5</text>
</g>
<!-- 17&#45;&gt;19 -->
<g id="edge19" class="edge">
<title>17&#45;&gt;19</title>
<path fill="none" stroke="black" stroke-width="0.6" d="M348.5,-257.77C348.5,-257.77 348.5,-220.19 348.5,-220.19"/>
<polygon fill="black" stroke="black" stroke-width="0.6" points="352,-220.19 348.5,-210.19 345,-220.19 352,-220.19"/>
<text text-anchor="middle" x="335.5" y="-241.38" font-family="Times,serif" font-size="7.00">&gt; 0.6508</text>
</g>
<!-- 20 -->
<g id="node21" class="node">
<title>20</title>
<polygon fill="#f6d3b9" stroke="black" stroke-width="1.2" points="287,-132 200,-132 200,-84 287,-84 287,-132"/>
<text text-anchor="middle" x="243.5" y="-123.2" font-family="trebuchet" font-size="11.00">Class 1:</text>
<text text-anchor="middle" x="243.5" y="-111.2" font-family="trebuchet" font-size="11.00">	P(0) = 0.3</text>
<text text-anchor="middle" x="243.5" y="-99.2" font-family="trebuchet" font-size="11.00">	P(1) = 0.7</text>
<text text-anchor="middle" x="243.5" y="-87.2" font-family="trebuchet" font-size="11.00">samples: 341</text>
</g>
<!-- 19&#45;&gt;20 -->
<g id="edge20" class="edge">
<title>19&#45;&gt;20</title>
<path fill="none" stroke="black" stroke-width="0.6" d="M339.5,-173.94C339.5,-162.56 339.5,-150 339.5,-150 339.5,-150 251.5,-150 251.5,-150 251.5,-150 251.5,-142.43 251.5,-142.43"/>
<polygon fill="black" stroke="black" stroke-width="0.6" points="255,-142.43 251.5,-132.43 248,-142.43 255,-142.43"/>
<text text-anchor="middle" x="290.69" y="-152.4" font-family="Times,serif" font-size="7.00">≤ 0.4154</text>
</g>
<!-- 21 -->
<g id="node22" class="node">
<title>21</title>
<polygon fill="#47a4e7" stroke="black" stroke-width="1.2" points="392,-132 305,-132 305,-84 392,-84 392,-132"/>
<text text-anchor="middle" x="348.5" y="-123.2" font-family="trebuchet" font-size="11.00">Class 0:</text>
<text text-anchor="middle" x="348.5" y="-111.2" font-family="trebuchet" font-size="11.00">	P(0) = 1.0</text>
<text text-anchor="middle" x="348.5" y="-99.2" font-family="trebuchet" font-size="11.00">	P(1) = 0.0</text>
<text text-anchor="middle" x="348.5" y="-87.2" font-family="trebuchet" font-size="11.00">samples: 835</text>
</g>
<!-- 19&#45;&gt;21 -->
<g id="edge21" class="edge">
<title>19&#45;&gt;21</title>
<path fill="none" stroke="black" stroke-width="0.6" d="M357.5,-173.77C357.5,-173.77 357.5,-142.25 357.5,-142.25"/>
<polygon fill="black" stroke="black" stroke-width="0.6" points="361,-142.25 357.5,-132.25 354,-142.25 361,-142.25"/>
<text text-anchor="middle" x="344.5" y="-160.41" font-family="Times,serif" font-size="7.00">&gt; 0.4154</text>
</g>
<!-- 23 -->
<g id="node24" class="node">
<title>23</title>
<polygon fill="#b4daf5" stroke="black" stroke-width="1.2" points="510.5,-210 456.5,-210 456.5,-174 510.5,-174 510.5,-210"/>
<text text-anchor="middle" x="483.5" y="-189.2" font-family="trebuchet" font-size="11.00">6</text>
</g>
<!-- 22&#45;&gt;23 -->
<g id="edge23" class="edge">
<title>22&#45;&gt;23</title>
<path fill="none" stroke="black" stroke-width="0.6" d="M483.5,-257.77C483.5,-257.77 483.5,-220.19 483.5,-220.19"/>
<polygon fill="black" stroke="black" stroke-width="0.6" points="487,-220.19 483.5,-210.19 480,-220.19 487,-220.19"/>
<text text-anchor="middle" x="470.5" y="-241.38" font-family="Times,serif" font-size="7.00">≤ 0.3148</text>
</g>
<!-- 26 -->
<g id="node27" class="node">
<title>26</title>
<polygon fill="#e9975b" stroke="black" stroke-width="1.2" points="690.5,-210 636.5,-210 636.5,-174 690.5,-174 690.5,-210"/>
<text text-anchor="middle" x="663.5" y="-189.2" font-family="trebuchet" font-size="11.00">7</text>
</g>
<!-- 22&#45;&gt;26 -->
<g id="edge26" class="edge">
<title>22&#45;&gt;26</title>
<path fill="none" stroke="black" stroke-width="0.6" d="M510.5,-276C517.45,-276 523,-276 523,-276 523,-276 523,-198 523,-198 523,-198 626.41,-198 626.41,-198"/>
<polygon fill="black" stroke="black" stroke-width="0.6" points="626.41,-201.5 636.41,-198 626.41,-194.5 626.41,-201.5"/>
<text text-anchor="middle" x="542.46" y="-200.4" font-family="Times,serif" font-size="7.00">&gt; 0.3148</text>
</g>
<!-- 24 -->
<g id="node25" class="node">
<title>24</title>
<polygon fill="#78bced" stroke="black" stroke-width="1.2" points="497,-132 410,-132 410,-84 497,-84 497,-132"/>
<text text-anchor="middle" x="453.5" y="-123.2" font-family="trebuchet" font-size="11.00">Class 0:</text>
<text text-anchor="middle" x="453.5" y="-111.2" font-family="trebuchet" font-size="11.00">	P(0) = 0.8</text>
<text text-anchor="middle" x="453.5" y="-99.2" font-family="trebuchet" font-size="11.00">	P(1) = 0.2</text>
<text text-anchor="middle" x="453.5" y="-87.2" font-family="trebuchet" font-size="11.00">samples: 1115</text>
</g>
<!-- 23&#45;&gt;24 -->
<g id="edge24" class="edge">
<title>23&#45;&gt;24</title>
<path fill="none" stroke="black" stroke-width="0.6" d="M476.75,-173.77C476.75,-173.77 476.75,-142.25 476.75,-142.25"/>
<polygon fill="black" stroke="black" stroke-width="0.6" points="480.25,-142.25 476.75,-132.25 473.25,-142.25 480.25,-142.25"/>
<text text-anchor="middle" x="463.75" y="-160.41" font-family="Times,serif" font-size="7.00">≤ 0.1983</text>
</g>
<!-- 25 -->
<g id="node26" class="node">
<title>25</title>
<polygon fill="#f7d7c1" stroke="black" stroke-width="1.2" points="602,-132 515,-132 515,-84 602,-84 602,-132"/>
<text text-anchor="middle" x="558.5" y="-123.2" font-family="trebuchet" font-size="11.00">Class 1:</text>
<text text-anchor="middle" x="558.5" y="-111.2" font-family="trebuchet" font-size="11.00">	P(0) = 0.3</text>
<text text-anchor="middle" x="558.5" y="-99.2" font-family="trebuchet" font-size="11.00">	P(1) = 0.7</text>
<text text-anchor="middle" x="558.5" y="-87.2" font-family="trebuchet" font-size="11.00">samples: 431</text>
</g>
<!-- 23&#45;&gt;25 -->
<g id="edge25" class="edge">
<title>23&#45;&gt;25</title>
<path fill="none" stroke="black" stroke-width="0.6" d="M510.77,-186C515.53,-186 519,-186 519,-186 519,-186 519,-142.25 519,-142.25"/>
<polygon fill="black" stroke="black" stroke-width="0.6" points="522.5,-142.25 519,-132.25 515.5,-142.25 522.5,-142.25"/>
<text text-anchor="middle" x="506" y="-162.64" font-family="Times,serif" font-size="7.00">&gt; 0.1983</text>
</g>
<!-- 27 -->
<g id="node28" class="node">
<title>27</title>
<polygon fill="#eda572" stroke="black" stroke-width="1.2" points="707,-132 620,-132 620,-84 707,-84 707,-132"/>
<text text-anchor="middle" x="663.5" y="-123.2" font-family="trebuchet" font-size="11.00">Class 1:</text>
<text text-anchor="middle" x="663.5" y="-111.2" font-family="trebuchet" font-size="11.00">	P(0) = 0.1</text>
<text text-anchor="middle" x="663.5" y="-99.2" font-family="trebuchet" font-size="11.00">	P(1) = 0.9</text>
<text text-anchor="middle" x="663.5" y="-87.2" font-family="trebuchet" font-size="11.00">samples: 2446</text>
</g>
<!-- 26&#45;&gt;27 -->
<g id="edge27" class="edge">
<title>26&#45;&gt;27</title>
<path fill="none" stroke="black" stroke-width="0.6" d="M663.5,-173.77C663.5,-173.77 663.5,-142.25 663.5,-142.25"/>
<polygon fill="black" stroke="black" stroke-width="0.6" points="667,-142.25 663.5,-132.25 660,-142.25 667,-142.25"/>
<text text-anchor="middle" x="652.5" y="-160.41" font-family="Times,serif" font-size="7.00">≤ 0.654</text>
</g>
<!-- 28 -->
<g id="node29" class="node">
<title>28</title>
<polygon fill="#e78946" stroke="black" stroke-width="1.2" points="779.5,-126 725.5,-126 725.5,-90 779.5,-90 779.5,-126"/>
<text text-anchor="middle" x="752.5" y="-105.2" font-family="trebuchet" font-size="11.00">9</text>
</g>
<!-- 26&#45;&gt;28 -->
<g id="edge28" class="edge">
<title>26&#45;&gt;28</title>
<path fill="none" stroke="black" stroke-width="0.6" d="M690.85,-192C712.55,-192 739.25,-192 739.25,-192 739.25,-192 739.25,-136.23 739.25,-136.23"/>
<polygon fill="black" stroke="black" stroke-width="0.6" points="742.75,-136.23 739.25,-126.23 735.75,-136.23 742.75,-136.23"/>
<text text-anchor="middle" x="728.25" y="-190.71" font-family="Times,serif" font-size="7.00">&gt; 0.654</text>
</g>
<!-- 29 -->
<g id="node30" class="node">
<title>29</title>
<polygon fill="#e68641" stroke="black" stroke-width="1.2" points="743,-48 656,-48 656,0 743,0 743,-48"/>
<text text-anchor="middle" x="699.5" y="-39.2" font-family="trebuchet" font-size="11.00">Class 1:</text>
<text text-anchor="middle" x="699.5" y="-27.2" font-family="trebuchet" font-size="11.00">	P(0) = 0.0</text>
<text text-anchor="middle" x="699.5" y="-15.2" font-family="trebuchet" font-size="11.00">	P(1) = 1.0</text>
<text text-anchor="middle" x="699.5" y="-3.2" font-family="trebuchet" font-size="11.00">samples: 1732</text>
</g>
<!-- 28&#45;&gt;29 -->
<g id="edge29" class="edge">
<title>28&#45;&gt;29</title>
<path fill="none" stroke="black" stroke-width="0.6" d="M734.25,-89.77C734.25,-89.77 734.25,-58.25 734.25,-58.25"/>
<polygon fill="black" stroke="black" stroke-width="0.6" points="737.75,-58.25 734.25,-48.25 730.75,-58.25 737.75,-58.25"/>
<text text-anchor="middle" x="721.25" y="-76.41" font-family="Times,serif" font-size="7.00">≤ 0.7541</text>
</g>
<!-- 30 -->
<g id="node31" class="node">
<title>30</title>
<polygon fill="#f1bd97" stroke="black" stroke-width="1.2" points="848,-48 761,-48 761,0 848,0 848,-48"/>
<text text-anchor="middle" x="804.5" y="-39.2" font-family="trebuchet" font-size="11.00">Class 1:</text>
<text text-anchor="middle" x="804.5" y="-27.2" font-family="trebuchet" font-size="11.00">	P(0) = 0.2</text>
<text text-anchor="middle" x="804.5" y="-15.2" font-family="trebuchet" font-size="11.00">	P(1) = 0.8</text>
<text text-anchor="middle" x="804.5" y="-3.2" font-family="trebuchet" font-size="11.00">samples: 93</text>
</g>
<!-- 28&#45;&gt;30 -->
<g id="edge30" class="edge">
<title>28&#45;&gt;30</title>
<path fill="none" stroke="black" stroke-width="0.6" d="M770.25,-89.77C770.25,-89.77 770.25,-58.25 770.25,-58.25"/>
<polygon fill="black" stroke="black" stroke-width="0.6" points="773.75,-58.25 770.25,-48.25 766.75,-58.25 773.75,-58.25"/>
<text text-anchor="middle" x="757.25" y="-76.41" font-family="Times,serif" font-size="7.00">&gt; 0.7541</text>
</g>
<!-- 32 -->
<g id="node33" class="node">
<title>32</title>
<polygon fill="#68b4eb" stroke="black" stroke-width="1.2" points="616,-300 529,-300 529,-252 616,-252 616,-300"/>
<text text-anchor="middle" x="572.5" y="-291.2" font-family="trebuchet" font-size="11.00">Class 0:</text>
<text text-anchor="middle" x="572.5" y="-279.2" font-family="trebuchet" font-size="11.00">	P(0) = 0.9</text>
<text text-anchor="middle" x="572.5" y="-267.2" font-family="trebuchet" font-size="11.00">	P(1) = 0.1</text>
<text text-anchor="middle" x="572.5" y="-255.2" font-family="trebuchet" font-size="11.00">samples: 1394</text>
</g>
<!-- 31&#45;&gt;32 -->
<g id="edge32" class="edge">
<title>31&#45;&gt;32</title>
<path fill="none" stroke="black" stroke-width="0.6" d="M563.5,-341.77C563.5,-341.77 563.5,-310.25 563.5,-310.25"/>
<polygon fill="black" stroke="black" stroke-width="0.6" points="567,-310.25 563.5,-300.25 560,-310.25 567,-310.25"/>
<text text-anchor="middle" x="550.5" y="-328.41" font-family="Times,serif" font-size="7.00">≤ 0.6072</text>
</g>
<!-- 33 -->
<g id="node34" class="node">
<title>33</title>
<polygon fill="#f0b890" stroke="black" stroke-width="1.2" points="721,-300 634,-300 634,-252 721,-252 721,-300"/>
<text text-anchor="middle" x="677.5" y="-291.2" font-family="trebuchet" font-size="11.00">Class 1:</text>
<text text-anchor="middle" x="677.5" y="-279.2" font-family="trebuchet" font-size="11.00">	P(0) = 0.2</text>
<text text-anchor="middle" x="677.5" y="-267.2" font-family="trebuchet" font-size="11.00">	P(1) = 0.8</text>
<text text-anchor="middle" x="677.5" y="-255.2" font-family="trebuchet" font-size="11.00">samples: 296</text>
</g>
<!-- 31&#45;&gt;33 -->
<g id="edge33" class="edge">
<title>31&#45;&gt;33</title>
<path fill="none" stroke="black" stroke-width="0.6" d="M581.5,-341.94C581.5,-330.56 581.5,-318 581.5,-318 581.5,-318 669.5,-318 669.5,-318 669.5,-318 669.5,-310.43 669.5,-310.43"/>
<polygon fill="black" stroke="black" stroke-width="0.6" points="673,-310.43 669.5,-300.43 666,-310.43 673,-310.43"/>
<text text-anchor="middle" x="604.31" y="-320.4" font-family="Times,serif" font-size="7.00">&gt; 0.6072</text>
</g>
<!-- 35 -->
<g id="node36" class="node">
<title>35</title>
<polygon fill="#fffdfb" stroke="black" stroke-width="1.2" points="740.5,-462 686.5,-462 686.5,-426 740.5,-426 740.5,-462"/>
<text text-anchor="middle" x="713.5" y="-441.2" font-family="trebuchet" font-size="11.00">5</text>
</g>
<!-- 34&#45;&gt;35 -->
<g id="edge35" class="edge">
<title>34&#45;&gt;35</title>
<path fill="none" stroke="black" stroke-width="0.6" d="M713.5,-503.91C713.5,-503.91 713.5,-472.26 713.5,-472.26"/>
<polygon fill="black" stroke="black" stroke-width="0.6" points="717,-472.26 713.5,-462.26 710,-472.26 717,-472.26"/>
<text text-anchor="middle" x="700.5" y="-490.49" font-family="Times,serif" font-size="7.00">≤ 0.5684</text>
</g>
<!-- 38 -->
<g id="node39" class="node">
<title>38</title>
<polygon fill="#74baed" stroke="black" stroke-width="1.2" points="898.5,-462 844.5,-462 844.5,-426 898.5,-426 898.5,-462"/>
<text text-anchor="middle" x="871.5" y="-441.2" font-family="trebuchet" font-size="11.00">9</text>
</g>
<!-- 34&#45;&gt;38 -->
<g id="edge38" class="edge">
<title>34&#45;&gt;38</title>
<path fill="none" stroke="black" stroke-width="0.6" d="M740.66,-522C785.84,-522 871.5,-522 871.5,-522 871.5,-522 871.5,-472.09 871.5,-472.09"/>
<polygon fill="black" stroke="black" stroke-width="0.6" points="875,-472.09 871.5,-462.09 868,-472.09 875,-472.09"/>
<text text-anchor="middle" x="818.04" y="-524.4" font-family="Times,serif" font-size="7.00">&gt; 0.5684</text>
</g>
<!-- 36 -->
<g id="node37" class="node">
<title>36</title>
<polygon fill="#e88e4e" stroke="black" stroke-width="1.2" points="705,-384 618,-384 618,-336 705,-336 705,-384"/>
<text text-anchor="middle" x="661.5" y="-375.2" font-family="trebuchet" font-size="11.00">Class 1:</text>
<text text-anchor="middle" x="661.5" y="-363.2" font-family="trebuchet" font-size="11.00">	P(0) = 0.1</text>
<text text-anchor="middle" x="661.5" y="-351.2" font-family="trebuchet" font-size="11.00">	P(1) = 0.9</text>
<text text-anchor="middle" x="661.5" y="-339.2" font-family="trebuchet" font-size="11.00">samples: 1756</text>
</g>
<!-- 35&#45;&gt;36 -->
<g id="edge36" class="edge">
<title>35&#45;&gt;36</title>
<path fill="none" stroke="black" stroke-width="0.6" d="M695.75,-425.77C695.75,-425.77 695.75,-394.25 695.75,-394.25"/>
<polygon fill="black" stroke="black" stroke-width="0.6" points="699.25,-394.25 695.75,-384.25 692.25,-394.25 699.25,-394.25"/>
<text text-anchor="middle" x="682.75" y="-412.41" font-family="Times,serif" font-size="7.00">≤ 0.3921</text>
</g>
<!-- 37 -->
<g id="node38" class="node">
<title>37</title>
<polygon fill="#a8d4f4" stroke="black" stroke-width="1.2" points="810,-384 723,-384 723,-336 810,-336 810,-384"/>
<text text-anchor="middle" x="766.5" y="-375.2" font-family="trebuchet" font-size="11.00">Class 0:</text>
<text text-anchor="middle" x="766.5" y="-363.2" font-family="trebuchet" font-size="11.00">	P(0) = 0.7</text>
<text text-anchor="middle" x="766.5" y="-351.2" font-family="trebuchet" font-size="11.00">	P(1) = 0.3</text>
<text text-anchor="middle" x="766.5" y="-339.2" font-family="trebuchet" font-size="11.00">samples: 2644</text>
</g>
<!-- 35&#45;&gt;37 -->
<g id="edge37" class="edge">
<title>35&#45;&gt;37</title>
<path fill="none" stroke="black" stroke-width="0.6" d="M731.75,-425.77C731.75,-425.77 731.75,-394.25 731.75,-394.25"/>
<polygon fill="black" stroke="black" stroke-width="0.6" points="735.25,-394.25 731.75,-384.25 728.25,-394.25 735.25,-394.25"/>
<text text-anchor="middle" x="718.75" y="-412.41" font-family="Times,serif" font-size="7.00">&gt; 0.3921</text>
</g>
<!-- 39 -->
<g id="node40" class="node">
<title>39</title>
<polygon fill="#ffffff" stroke="black" stroke-width="1.2" points="915,-384 828,-384 828,-336 915,-336 915,-384"/>
<text text-anchor="middle" x="871.5" y="-375.2" font-family="trebuchet" font-size="11.00">Class 0:</text>
<text text-anchor="middle" x="871.5" y="-363.2" font-family="trebuchet" font-size="11.00">	P(0) = 0.5</text>
<text text-anchor="middle" x="871.5" y="-351.2" font-family="trebuchet" font-size="11.00">	P(1) = 0.5</text>
<text text-anchor="middle" x="871.5" y="-339.2" font-family="trebuchet" font-size="11.00">samples: 335</text>
</g>
<!-- 38&#45;&gt;39 -->
<g id="edge39" class="edge">
<title>38&#45;&gt;39</title>
<path fill="none" stroke="black" stroke-width="0.6" d="M871.5,-425.77C871.5,-425.77 871.5,-394.25 871.5,-394.25"/>
<polygon fill="black" stroke="black" stroke-width="0.6" points="875,-394.25 871.5,-384.25 868,-394.25 875,-394.25"/>
<text text-anchor="middle" x="858.5" y="-412.41" font-family="Times,serif" font-size="7.00">≤ 0.3099</text>
</g>
<!-- 40 -->
<g id="node41" class="node">
<title>40</title>
<polygon fill="#5aade9" stroke="black" stroke-width="1.2" points="987.5,-378 933.5,-378 933.5,-342 987.5,-342 987.5,-378"/>
<text text-anchor="middle" x="960.5" y="-357.2" font-family="trebuchet" font-size="11.00">1</text>
</g>
<!-- 38&#45;&gt;40 -->
<g id="edge40" class="edge">
<title>38&#45;&gt;40</title>
<path fill="none" stroke="black" stroke-width="0.6" d="M898.69,-444C924.86,-444 960.5,-444 960.5,-444 960.5,-444 960.5,-388.23 960.5,-388.23"/>
<polygon fill="black" stroke="black" stroke-width="0.6" points="964,-388.23 960.5,-378.23 957,-388.23 964,-388.23"/>
<text text-anchor="middle" x="944.48" y="-446.4" font-family="Times,serif" font-size="7.00">&gt; 0.3099</text>
</g>
<!-- 41 -->
<g id="node42" class="node">
<title>41</title>
<polygon fill="#53aae8" stroke="black" stroke-width="1.2" points="913.5,-294 859.5,-294 859.5,-258 913.5,-258 913.5,-294"/>
<text text-anchor="middle" x="886.5" y="-273.2" font-family="trebuchet" font-size="11.00">9</text>
</g>
<!-- 40&#45;&gt;41 -->
<g id="edge41" class="edge">
<title>40&#45;&gt;41</title>
<path fill="none" stroke="black" stroke-width="0.6" d="M933.22,-360C927.68,-360 923.5,-360 923.5,-360 923.5,-360 923.5,-276 923.5,-276 923.5,-276 922.53,-276 922.53,-276"/>
<polygon fill="black" stroke="black" stroke-width="0.6" points="923.78,-272.5 913.78,-276 923.78,-279.5 923.78,-272.5"/>
<text text-anchor="middle" x="910.5" y="-324.77" font-family="Times,serif" font-size="7.00">≤ 0.9004</text>
</g>
<!-- 44 -->
<g id="node45" class="node">
<title>44</title>
<polygon fill="#c5e2f7" stroke="black" stroke-width="1.2" points="1019,-300 932,-300 932,-252 1019,-252 1019,-300"/>
<text text-anchor="middle" x="975.5" y="-291.2" font-family="trebuchet" font-size="11.00">Class 0:</text>
<text text-anchor="middle" x="975.5" y="-279.2" font-family="trebuchet" font-size="11.00">	P(0) = 0.6</text>
<text text-anchor="middle" x="975.5" y="-267.2" font-family="trebuchet" font-size="11.00">	P(1) = 0.4</text>
<text text-anchor="middle" x="975.5" y="-255.2" font-family="trebuchet" font-size="11.00">samples: 237</text>
</g>
<!-- 40&#45;&gt;44 -->
<g id="edge44" class="edge">
<title>40&#45;&gt;44</title>
<path fill="none" stroke="black" stroke-width="0.6" d="M960.5,-341.77C960.5,-341.77 960.5,-310.25 960.5,-310.25"/>
<polygon fill="black" stroke="black" stroke-width="0.6" points="964,-310.25 960.5,-300.25 957,-310.25 964,-310.25"/>
<text text-anchor="middle" x="947.5" y="-328.41" font-family="Times,serif" font-size="7.00">&gt; 0.9004</text>
</g>
<!-- 42 -->
<g id="node43" class="node">
<title>42</title>
<polygon fill="#a3d2f3" stroke="black" stroke-width="1.2" points="840,-216 753,-216 753,-168 840,-168 840,-216"/>
<text text-anchor="middle" x="796.5" y="-207.2" font-family="trebuchet" font-size="11.00">Class 0:</text>
<text text-anchor="middle" x="796.5" y="-195.2" font-family="trebuchet" font-size="11.00">	P(0) = 0.7</text>
<text text-anchor="middle" x="796.5" y="-183.2" font-family="trebuchet" font-size="11.00">	P(1) = 0.3</text>
<text text-anchor="middle" x="796.5" y="-171.2" font-family="trebuchet" font-size="11.00">samples: 115</text>
</g>
<!-- 41&#45;&gt;42 -->
<g id="edge42" class="edge">
<title>41&#45;&gt;42</title>
<path fill="none" stroke="black" stroke-width="0.6" d="M859.33,-276C846.52,-276 834,-276 834,-276 834,-276 834,-226.3 834,-226.3"/>
<polygon fill="black" stroke="black" stroke-width="0.6" points="837.5,-226.3 834,-216.3 830.5,-226.3 837.5,-226.3"/>
<text text-anchor="middle" x="821" y="-266.21" font-family="Times,serif" font-size="7.00">≤ 0.4693</text>
</g>
<!-- 43 -->
<g id="node44" class="node">
<title>43</title>
<polygon fill="#4fa8e8" stroke="black" stroke-width="1.2" points="945,-216 858,-216 858,-168 945,-168 945,-216"/>
<text text-anchor="middle" x="901.5" y="-207.2" font-family="trebuchet" font-size="11.00">Class 0:</text>
<text text-anchor="middle" x="901.5" y="-195.2" font-family="trebuchet" font-size="11.00">	P(0) = 0.9</text>
<text text-anchor="middle" x="901.5" y="-183.2" font-family="trebuchet" font-size="11.00">	P(1) = 0.1</text>
<text text-anchor="middle" x="901.5" y="-171.2" font-family="trebuchet" font-size="11.00">samples: 1883</text>
</g>
<!-- 41&#45;&gt;43 -->
<g id="edge43" class="edge">
<title>41&#45;&gt;43</title>
<path fill="none" stroke="black" stroke-width="0.6" d="M886.5,-257.77C886.5,-257.77 886.5,-226.25 886.5,-226.25"/>
<polygon fill="black" stroke="black" stroke-width="0.6" points="890,-226.25 886.5,-216.25 883,-226.25 890,-226.25"/>
<text text-anchor="middle" x="873.5" y="-244.41" font-family="Times,serif" font-size="7.00">&gt; 0.4693</text>
</g>
</g>
</svg>
